<svg width="510" height="383" viewBox="0 0 510 383" fill="none" xmlns="http://www.w3.org/2000/svg">
<path d="M25.0856 74.7451L35.1257 62.0113C36.7061 60.0069 38.1255 57.8807 39.3706 55.6525C44.3307 46.7766 51.9592 39.6875 61.1744 35.3906L99.7785 17.3898C123.637 6.26498 149.641 0.5 175.966 0.5H259.5L328.544 9.74438C361.928 14.2142 394.282 24.4466 424.165 39.9858L446.647 51.6765C459.795 58.5132 471.74 67.4459 482.015 78.1239L486.037 82.3029C490.001 86.4229 493.521 90.9486 496.538 95.8054L498.366 98.7478C507.485 113.427 511.033 130.89 508.365 147.964C507.789 151.649 507.5 155.373 507.5 159.103V167.39C507.5 183.72 505.264 199.973 500.854 215.696L496 233L489.198 250.686C482.112 269.11 472.124 286.282 459.614 301.552C449.579 313.8 438.015 324.71 425.204 334.015L419.38 338.245C404.516 349.041 388.386 357.976 371.349 364.85C350.566 373.236 328.647 378.47 306.317 380.379L281.5 382.5H256.128C229.277 382.5 202.662 377.501 177.641 367.759C165.24 362.93 153.311 356.967 142.006 349.946L133.038 344.376C118.711 335.479 105.257 325.248 92.854 313.821C75.6916 298.008 60.669 280.021 48.1677 260.315L47.8694 259.845C40.9652 248.962 34.8428 237.602 29.5486 225.852L17 198L7.10227 173.706C2.74219 163.004 0.5 151.557 0.5 140.001C0.5 126.83 3.41247 113.822 9.02886 101.908L11.4313 96.8123C15.1318 88.9629 19.7126 81.5596 25.0856 74.7451Z" stroke="black"/>
</svg>
